<svg width="60" height="60" viewBox="0 0 60 60" fill="none" xmlns="http://www.w3.org/2000/svg">
<path fill-rule="evenodd" clip-rule="evenodd" d="M26.8773 32.8634C26.8773 34.5884 28.2756 35.9866 30.0006 35.9866C31.7256 35.9866 33.1239 34.5884 33.1239 32.8634V23.4935C33.1239 21.7686 31.7256 20.3702 30.0006 20.3702C28.2756 20.3702 26.8773 21.7686 26.8773 23.4935V32.8634ZM33.1239 42.1982C33.1239 40.4732 31.7256 39.0749 30.0006 39.0749C28.2756 39.0749 26.8773 40.4732 26.8773 42.1982V42.2332C26.8773 43.9582 28.2756 45.3565 30.0006 45.3565C31.7256 45.3565 33.1239 43.9582 33.1239 42.2332V42.1982ZM21.8093 6.81945C25.3794 0.393517 34.6209 0.393517 38.1908 6.81945L58.8075 43.9295C62.2769 50.1748 57.7609 57.8496 50.6167 57.8496H9.38334C2.23896 57.8496 -2.27699 50.1748 1.1926 43.9295L21.8093 6.81945Z" fill="#DC3545"/>
</svg>
