<svg width="60" height="60" viewBox="0 0 60 60" fill="none" xmlns="http://www.w3.org/2000/svg">
<g clip-path="url(#clip0_497_369)">
<path d="M41.6423 57.1002L38.9241 57.082H5.43304V41.3165H2.71484V59.8002H41.6423V57.1002Z" fill="black"/>
<path d="M36.1214 0H2.71484V22.2892H5.43304V2.71819H32.615V19.0274H48.9241L49.1921 31.5H51.6423L51.6423 15.5182L36.1214 0ZM48.9241 16.3092H35.3332V2.71819H35.8768L48.9241 15.7655V16.3092Z" fill="black"/>
<path d="M35.4452 38.5983L41.2241 25.0073H38.2722L34.01 35.032L29.8077 25.0073H26.8612L32.5558 38.5983H35.4452ZM13.591 28.6742V29.4951C13.5917 30.4673 13.9782 31.3996 14.6658 32.0871C15.3533 32.7746 16.2855 33.1612 17.2578 33.1619H20.7942C20.9188 33.1619 21.0421 33.1864 21.1572 33.2341C21.2723 33.2818 21.3769 33.3517 21.465 33.4398C21.5531 33.5278 21.6229 33.6324 21.6706 33.7475C21.7183 33.8626 21.7428 33.986 21.7428 34.1106V34.9314C21.7428 35.056 21.7183 35.1794 21.6706 35.2945C21.6229 35.4096 21.5531 35.5142 21.465 35.6022C21.3769 35.6903 21.2723 35.7602 21.1572 35.8079C21.0421 35.8556 20.9188 35.8801 20.7942 35.8801H13.591V38.5983H20.7969C21.7692 38.5976 22.7014 38.211 23.3889 37.5235C24.0765 36.836 24.463 35.9037 24.4637 34.9314V34.1106C24.463 33.1383 24.0765 32.206 23.3889 31.5185C22.7014 30.831 21.7692 30.4444 20.7969 30.4437H17.2605C17.1357 30.4441 17.0121 30.4198 16.8967 30.3723C16.7812 30.3248 16.6764 30.2549 16.588 30.1668C16.4996 30.0787 16.4295 29.974 16.3816 29.8587C16.3338 29.7435 16.3092 29.6199 16.3092 29.4951V28.6742C16.3092 28.4226 16.4091 28.1813 16.587 28.0034C16.7649 27.8255 17.0062 27.7255 17.2578 27.7255H24.4637V25.0073H17.2578C16.2855 25.008 15.3533 25.3946 14.6658 26.0821C13.9782 26.7696 13.5917 27.7019 13.591 28.6742ZM0 30.5552V33.0505C0.002157 34.5212 0.587351 35.931 1.6273 36.971C2.66726 38.0109 4.07712 38.5961 5.54783 38.5983H10.8728V35.8801H5.54783C4.79759 35.8794 4.07827 35.581 3.54777 35.0505C3.01727 34.52 2.71891 33.8007 2.71819 33.0505V30.5552C2.71891 29.8049 3.01727 29.0856 3.54777 28.5551C4.07827 28.0246 4.79759 27.7262 5.54783 27.7255H10.8728V25.0073H5.54783C4.07712 25.0095 2.66726 25.5947 1.6273 26.6346C0.587351 27.6746 0.002157 29.0844 0 30.5552Z" fill="black"/>
<path fill-rule="evenodd" clip-rule="evenodd" d="M52.1162 36.9674V52.8892L56.3147 48.6889L58.9277 51.3018L50.2295 60L41.5312 51.3018L44.1442 48.6889L48.4185 52.9631V36.9674H52.1162Z" fill="black"/>
</g>
<defs>
<clipPath id="clip0_497_369">
<rect width="60" height="60" fill="white"/>
</clipPath>
</defs>
</svg>
