<svg width="24" height="24" viewBox="0 0 24 24" fill="none" xmlns="http://www.w3.org/2000/svg">
<path fill-rule="evenodd" clip-rule="evenodd" d="M4.23434 17.8346C3.92189 18.1471 3.92189 18.6537 4.23434 18.9662C4.54678 19.2786 5.05334 19.2786 5.36577 18.9662L11.7662 12.5657C12.0786 12.2533 12.0786 11.7467 11.7662 11.4343L5.36577 5.0339C5.05334 4.72145 4.54678 4.72145 4.23434 5.0339C3.92189 5.34634 3.92189 5.8529 4.23434 6.16533L10.069 12L4.23434 17.8346Z" fill="black"/>
<path fill-rule="evenodd" clip-rule="evenodd" d="M12.2343 17.8346C11.9219 18.1471 11.9219 18.6537 12.2343 18.9662C12.5468 19.2786 13.0533 19.2786 13.3658 18.9662L19.7662 12.5657C20.0786 12.2533 20.0786 11.7467 19.7662 11.4343L13.3658 5.0339C13.0533 4.72145 12.5468 4.72145 12.2343 5.0339C11.9219 5.34634 11.9219 5.8529 12.2343 6.16533L18.069 12L12.2343 17.8346Z" fill="black"/>
</svg>
