<svg width="24" height="24" viewBox="0 0 24 24" fill="none" xmlns="http://www.w3.org/2000/svg">
<g clip-path="url(#clip0_490_1811)">
<path fill-rule="evenodd" clip-rule="evenodd" d="M0.234339 17.8346C-0.078113 18.1471 -0.078113 18.6537 0.234339 18.9662C0.546775 19.2786 1.05334 19.2786 1.36577 18.9662L7.76618 12.5657C8.07864 12.2533 8.07864 11.7467 7.76618 11.4343L1.36577 5.0339C1.05334 4.72145 0.546775 4.72145 0.234339 5.0339C-0.078113 5.34634 -0.078113 5.8529 0.234339 6.16533L6.06902 12L0.234339 17.8346Z" fill="black"/>
<path fill-rule="evenodd" clip-rule="evenodd" d="M8.23434 17.8346C7.92189 18.1471 7.92189 18.6537 8.23434 18.9662C8.54678 19.2786 9.05334 19.2786 9.36577 18.9662L15.7662 12.5657C16.0786 12.2533 16.0786 11.7467 15.7662 11.4343L9.36577 5.0339C9.05334 4.72145 8.54678 4.72145 8.23434 5.0339C7.92189 5.34634 7.92189 5.8529 8.23434 6.16533L14.069 12L8.23434 17.8346Z" fill="black"/>
<path fill-rule="evenodd" clip-rule="evenodd" d="M16.2343 17.8346C15.9219 18.1471 15.9219 18.6537 16.2343 18.9662C16.5468 19.2786 17.0533 19.2786 17.3658 18.9662L23.7662 12.5657C24.0786 12.2533 24.0786 11.7467 23.7662 11.4343L17.3658 5.0339C17.0533 4.72145 16.5468 4.72145 16.2343 5.0339C15.9219 5.34634 15.9219 5.8529 16.2343 6.16533L22.069 12L16.2343 17.8346Z" fill="black"/>
</g>
<defs>
<clipPath id="clip0_490_1811">
<rect width="24" height="24" fill="white"/>
</clipPath>
</defs>
</svg>
