<svg width="22" height="22" viewBox="0 0 22 22" fill="none" xmlns="http://www.w3.org/2000/svg">
<path d="M3.3913 22C2.07011 22 1 20.9299 1 19.6087C1 18.2875 2.07011 17.2174 3.3913 17.2174C4.7125 17.2174 5.78261 18.2875 5.78261 19.6087C5.78261 20.9299 4.7125 22 3.3913 22ZM3.3913 13.3913C2.07011 13.3913 1 12.3212 1 11C1 9.6788 2.07011 8.6087 3.3913 8.6087C4.7125 8.6087 5.78261 9.6788 5.78261 11C5.78261 12.3212 4.7125 13.3913 3.3913 13.3913ZM3.3913 4.78261C2.07011 4.78261 1 3.7125 1 2.3913C1 1.07011 2.07011 0 3.3913 0C4.7125 0 5.78261 1.07011 5.78261 2.3913C5.78261 3.7125 4.7125 4.78261 3.3913 4.78261ZM21.5652 21.0435C21.5652 21.3065 21.35 21.5217 21.087 21.5217H10.087C9.82391 21.5217 9.6087 21.3065 9.6087 21.0435V18.1739C9.6087 17.9109 9.82391 17.6956 10.087 17.6956H21.087C21.35 17.6956 21.5652 17.9109 21.5652 18.1739V21.0435ZM21.5652 12.4348C21.5652 12.6978 21.35 12.913 21.087 12.913H10.087C9.82391 12.913 9.6087 12.6978 9.6087 12.4348V9.56522C9.6087 9.30217 9.82391 9.08696 10.087 9.08696H21.087C21.35 9.08696 21.5652 9.30217 21.5652 9.56522V12.4348ZM21.5652 3.82609C21.5652 4.08913 21.35 4.30435 21.087 4.30435H10.087C9.82391 4.30435 9.6087 4.08913 9.6087 3.82609V0.956522C9.6087 0.693478 9.82391 0.47826 10.087 0.47826H21.087C21.35 0.47826 21.5652 0.693478 21.5652 0.956522V3.82609Z" fill="#333333"/>
</svg>
