<svg width="19" height="19" viewBox="0 0 19 19" fill="none" xmlns="http://www.w3.org/2000/svg">
<path fill-rule="evenodd" clip-rule="evenodd" d="M2.72566 11.1936C3.03744 11.1936 3.29019 11.4464 3.29019 11.7581C3.29019 12.8386 3.29139 13.5921 3.36783 14.1607C3.44209 14.713 3.57791 15.0055 3.78623 15.2138C3.99455 15.4222 4.28704 15.5579 4.83935 15.6322C5.40791 15.7086 6.16146 15.7098 7.2419 15.7098H11.7581C12.8386 15.7098 13.5921 15.7086 14.1607 15.6322C14.713 15.5579 15.0055 15.4222 15.2138 15.2138C15.4222 15.0055 15.5579 14.713 15.6322 14.1607C15.7086 13.5921 15.7098 12.8386 15.7098 11.7581C15.7098 11.4464 15.9626 11.1936 16.2744 11.1936C16.5861 11.1936 16.8389 11.4464 16.8389 11.7581V11.7995C16.8389 12.8289 16.8389 13.6586 16.7512 14.3112C16.6601 14.9887 16.4653 15.5591 16.0122 16.0121C15.5591 16.4653 14.9887 16.6601 14.3112 16.7512C13.6586 16.8389 12.8289 16.8389 11.7995 16.8389H7.2006C6.1712 16.8389 5.34148 16.8389 4.68891 16.7512C4.01139 16.6601 3.44094 16.4653 2.98787 16.0122C2.5348 15.5591 2.33993 14.9887 2.24884 14.3112C2.1611 13.6586 2.16112 12.8289 2.16113 11.7995C2.16113 11.7857 2.16113 11.7719 2.16113 11.7581C2.16113 11.4464 2.41388 11.1936 2.72566 11.1936Z" fill="#182958"/>
<path fill-rule="evenodd" clip-rule="evenodd" d="M9.50016 13.0754C9.65868 13.0754 9.80982 13.0088 9.91678 12.8918L12.9276 9.59869C13.138 9.36859 13.122 9.01151 12.8919 8.80113C12.6618 8.59075 12.3047 8.6067 12.0944 8.83681L10.0647 11.0568V2.72566C10.0647 2.41388 9.81193 2.16113 9.50016 2.16113C9.18839 2.16113 8.93563 2.41388 8.93563 2.72566V11.0568L6.90598 8.83681C6.6956 8.6067 6.33852 8.59075 6.10841 8.80113C5.87831 9.01151 5.86232 9.36859 6.0727 9.59869L9.08354 12.8918C9.1905 13.0088 9.34164 13.0754 9.50016 13.0754Z" fill="#1C274C"/>
</svg>
