<svg width="19" height="19" viewBox="0 0 19 19" fill="none" xmlns="http://www.w3.org/2000/svg">
<path fill-rule="evenodd" clip-rule="evenodd" d="M16.2743 7.8064C15.9626 7.8064 15.7098 7.55364 15.7098 7.24187C15.7098 6.16143 15.7086 5.4079 15.6322 4.8393C15.5579 4.28697 15.4221 3.99454 15.2138 3.78619C15.0054 3.57785 14.713 3.44206 14.1606 3.36776C13.5921 3.29137 12.8385 3.29016 11.7581 3.29016L7.24187 3.29016C6.16143 3.29016 5.4079 3.29136 4.83931 3.36776C4.28697 3.44206 3.99454 3.57784 3.7862 3.78619C3.57785 3.99454 3.44206 4.28697 3.36777 4.8393C3.29137 5.4079 3.29016 6.16143 3.29016 7.24187C3.29016 7.55364 3.0374 7.8064 2.72563 7.8064C2.41386 7.8064 2.1611 7.55364 2.1611 7.24187L2.1611 7.20054C2.1611 6.17114 2.1611 5.34143 2.24879 4.68884C2.33987 4.01133 2.53475 3.44093 2.9878 2.98787C3.44093 2.53474 4.01133 2.33987 4.68884 2.24879C5.34144 2.1611 6.17114 2.1611 7.20054 2.1611L11.7994 2.1611C12.8288 2.1611 13.6585 2.1611 14.3111 2.24879C14.9886 2.33987 15.5591 2.53475 16.0121 2.9878C16.4652 3.44093 16.6601 4.01133 16.7512 4.68884C16.8389 5.34144 16.8389 6.17114 16.8389 7.20054C16.8389 7.21432 16.8389 7.22809 16.8389 7.24187C16.8389 7.55364 16.5861 7.8064 16.2743 7.8064Z" fill="#182958"/>
<path fill-rule="evenodd" clip-rule="evenodd" d="M9.49984 5.92463C9.34132 5.92463 9.19018 5.99125 9.08322 6.10822L6.0724 9.4013C5.86201 9.63141 5.87797 9.98849 6.10807 10.1989C6.33818 10.4093 6.69526 10.3933 6.90564 10.1632L8.93531 7.94324L8.93531 16.2743C8.93531 16.5861 9.18807 16.8389 9.49984 16.8389C9.81161 16.8389 10.0644 16.5861 10.0644 16.2743L10.0644 7.94324L12.094 10.1632C12.3044 10.3933 12.6615 10.4093 12.8916 10.1989C13.1217 9.98849 13.1377 9.63141 12.9273 9.40131L9.91647 6.10822C9.80951 5.99125 9.65836 5.92463 9.49984 5.92463Z" fill="#1C274C"/>
</svg>
