<svg width="17" height="17" viewBox="0 0 17 17" fill="none" xmlns="http://www.w3.org/2000/svg">
<path d="M6.07715 8.50002L7.69036 10.1199L10.9234 6.88013" stroke="#182958" stroke-width="1.00406" stroke-linecap="round" stroke-linejoin="round"/>
<path d="M7.66375 2.10748C8.12561 1.71255 8.88201 1.71255 9.35057 2.10748L10.4082 3.01782C10.609 3.19186 10.9838 3.33243 11.2516 3.33243H12.3895C13.0991 3.33243 13.6814 3.91478 13.6814 4.62432V5.76225C13.6814 6.02331 13.822 6.40485 13.996 6.60566L14.9064 7.66326C15.3013 8.12512 15.3013 8.88151 14.9064 9.35007L13.996 10.4077C13.822 10.6085 13.6814 10.9833 13.6814 11.2511V12.389C13.6814 13.0986 13.0991 13.6809 12.3895 13.6809H11.2516C10.9905 13.6809 10.609 13.8215 10.4082 13.9955L9.35057 14.9059C8.8887 15.3008 8.13231 15.3008 7.66375 14.9059L6.60611 13.9955C6.4053 13.8215 6.03045 13.6809 5.7627 13.6809H4.60469C3.89515 13.6809 3.3128 13.0986 3.3128 12.389V11.2444C3.3128 10.9833 3.17223 10.6085 3.00489 10.4077L2.10124 9.34338C1.713 8.88151 1.713 8.13182 2.10124 7.66995L3.00489 6.60566C3.17223 6.40485 3.3128 6.03 3.3128 5.76894V4.61762C3.3128 3.90809 3.89515 3.32573 4.60469 3.32573H5.7627C6.02376 3.32573 6.4053 3.18517 6.60611 3.01113L7.66375 2.10748Z" stroke="#182958" stroke-width="1.00406" stroke-linecap="round" stroke-linejoin="round"/>
</svg>
